<svg xmlns="http://www.w3.org/2000/svg" xmlns:xlink="http://www.w3.org/1999/xlink" viewBox="0 0 470 173"><g fill="#221f20"><path d="M183.1 92.2h3.9V109h13.4v4.7H187v25.9c0 1.7.4 3 1.3 4 .9.9 2 1.4 3.4 1.4 4.1 0 6.2-3.8 6.5-11.4h3.9c-.1 4-.7 7.3-1.9 9.7-1.2 2.5-2.9 4.3-5.1 5.7-2.2 1.3-4.7 2-7.5 2-2.4 0-4.5-.5-6.3-1.5s-3.2-2.5-4.3-4.4c-1.1-2-1.6-4.1-1.6-6.4v-25.1h-7.2v-4.7c4.4 0 7.9-1.6 10.3-4.4s4-6.9 4.6-12.3M63.7 141.9c2.1 6.1 3.9 10.2 5.6 12.4 1.1 1.4 2.3 2.1 3.5 2.1 1.1 0 2-.4 2.6-1.3s1-2.7 1.2-5.6H81c0 5.4-1.5 9.7-4.3 12.8s-6.3 4.7-10.6 4.7c-4.2 0-7.6-1.4-10.1-4.2s-4.1-7.8-4.8-15c-1.5.3-3.1.6-4.6.8a39.08 39.08 0 0 1-4.9.3c-10.3 0-19.1-3.6-26.1-10.8C8.5 130.9 5 121.8 5 110.7s3.5-20.2 10.6-27.4c7-7.2 15.8-10.8 26.3-10.8s19.4 3.6 26.6 10.8 10.8 16.2 10.8 26.8c0 6.5-1.2 12.4-3.7 17.5-2.6 5.1-6.5 9.9-11.9 14.3M59 130c1.6-6 2.5-12.9 2.5-20.7 0-8-.8-14.2-2.5-18.8-1.7-4.5-4-7.9-7-10-3-2.2-6.3-3.2-10.1-3.2s-7.2 1.1-10.2 3.4c-3 2.2-5.1 5.4-6.5 9.4-1.8 5.7-2.7 12.6-2.7 20.8 0 9.9 1.3 17.7 4 23.3.2-4.7 1.7-8.4 4.5-11.1s6.7-4 11.6-4c3.6 0 6.7.9 9.4 2.7s5.1 4.6 7 8.2m-7.8 11.1l.1-2.7c0-4.8-1-8.5-2.9-10.9-1.9-2.5-4.4-3.7-7.4-3.7-2.6 0-4.8 1-6.7 3s-2.8 4.5-2.8 7.4c0 2.7.9 5.3 2.6 7.8 2.6 1.3 5.1 1.9 7.7 1.9 1.9 0 3.6-.2 5.2-.7s3-1.2 4.2-2.1"/><path d="M78.9 108.9l18.2-1V135c0 2.5.7 4.5 2 6 1.4 1.5 3.1 2.2 5.3 2.2 3.1 0 5.5-1.2 7.3-3.7 1.8-2.4 2.7-5.3 2.7-8.6v-13.3c0-1.6-.4-2.8-1.3-3.6s-2.1-1.2-3.6-1.2h-2v-4l18.4-1v33c0 1.5.5 2.6 1.4 3.5.9.8 2.1 1.3 3.6 1.3h1.9v4.1l-16.9.5c-.7-2.9-1.1-6-1.2-9.3-2.8 3.6-5.5 6.1-8.1 7.5-2.6 1.5-5.3 2.2-8.1 2.2s-5.1-.6-7-1.8-3.4-3-4.5-5.5-1.7-5.6-1.7-9.2v-16.2c0-1.8-.4-3-1.3-3.8s-2.6-1.2-5.1-1.2v-4zm71.1-2.2c4.6 0 8.7 1 12.6 3 3.8 2 6.6 4.5 8.5 7.7s2.8 7 2.8 11.5c0 7.1-2.4 12.6-7.3 16.4s-10.4 5.7-16.5 5.7c-4.4 0-8.3-1-11.9-2.9-3.6-2-6.4-4.6-8.3-7.9s-2.9-7.1-2.9-11.2c0-6.3 2.2-11.6 6.6-15.8 4.2-4.4 9.7-6.5 16.4-6.5m.2 4.1c-3 0-5.4 1.3-7.2 4s-2.7 7.3-2.7 14c0 6.9.9 11.7 2.7 14.3s4.2 3.9 7.2 3.9c3.1 0 5.6-1.3 7.4-4 1.9-2.7 2.8-7.4 2.8-14 0-6.8-.9-11.5-2.8-14.2-1.8-2.7-4.3-4-7.4-4m50.2-1.9l18.1-.8v34.6c0 .9.3 1.6.9 2.1s1.5.8 2.7.8h2.7v4.1h-24.4v-4.1h2.7c1.5 0 2.5-.3 3.1-1s.9-1.8.9-3.5v-23.6c0-1.5-.4-2.6-1.3-3.4-.6-.6-2-.5-3.5-.5h-1.8v-4.7h-.1zm11.2-23.5c1.9 0 3.6.7 5 2.1s2.1 3.1 2.1 5c0 2-.7 3.7-2.1 5-1.4 1.4-3.1 2.1-5 2.1-2 0-3.7-.7-5-2.1-1.4-1.4-2.1-3.1-2.1-5 0-2 .7-3.6 2.1-5 1.3-1.4 3-2.1 5-2.1m60 23.5l18.1-.8v34.6c0 .9.3 1.6.9 2.1s1.5.8 2.7.8h2.7v4.1h-24.4v-4.1h2.7c1.5 0 2.5-.3 3.1-1s.9-1.8.9-3.5v-23.6c0-1.5-.4-2.6-1.3-3.4-.6-.6-2-.5-3.5-.5h-1.8v-4.7h-.1zm11.2-23.5c1.9 0 3.6.7 5 2.1s2.1 3.1 2.1 5c0 2-.7 3.7-2.1 5-1.4 1.4-3.1 2.1-5 2.1-2 0-3.7-.7-5-2.1-1.4-1.4-2.1-3.1-2.1-5 0-2 .7-3.6 2.1-5s3-2.1 5-2.1"/><path d="M244.8 85.1l20.2-.8v53.3c0 2.7.2 4.6.5 5.5.4.9.9 1.6 1.7 2s2.2.5 4.4.5v4.1l-16.7.5-1.2-7.9c-2.6 3.3-4.9 5.6-6.9 6.7-2.1 1.1-4.7 1.7-7.8 1.7-5.6 0-10.1-1.9-13.6-5.6s-5.3-8.8-5.3-15.2c0-7.1 1.9-12.7 5.6-16.8s8.3-6.2 13.8-6.2c3 0 5.6.6 7.9 1.9s4.4 3.4 6.3 6.3V96.6c0-2.2-.2-3.8-.6-4.7-.4-1-.9-1.6-1.6-2s-2.1-.5-4.2-.5h-2.4v-4.3h-.1zm-1.4 27.2c-3.4 0-5.9 1.5-7.5 4.4-1.4 2.4-2 6.2-2 11.5 0 4.4.4 7.6 1.1 9.8.8 2.2 1.8 3.8 3.2 4.8 1.4 1.1 3 1.6 4.8 1.6 3 0 5.3-1.3 7.1-3.8 2.4-3.3 3.6-7.5 3.6-12.7 0-4.8-1-8.6-3.1-11.4-2-2.8-4.4-4.2-7.2-4.2m97.7 32.3l1.8 3.1c-1.8 1.2-3.4 2.1-4.8 2.5-1.4.5-3 .7-4.6.7-2.5 0-4.5-.5-6.1-1.6-1.5-1.1-2.9-3-4.2-6-3 2.9-5.6 4.9-8 6-2.3 1.1-5 1.6-8 1.6-4.1 0-7.3-.9-9.6-2.8s-3.4-4.3-3.4-7.2c0-4.4 2.1-7.9 6.4-10.5 3.4-2.1 10.8-4.2 22.3-6.3v-5.9c0-2.3-.8-4.2-2.3-5.7s-3.6-2.2-6.2-2.2c-2 0-3.7.4-5.2 1.3-1 .5-1.5 1.1-1.5 1.6 0 .3.2.7.6 1.3.8 1.3 1.2 2.6 1.2 3.9 0 1.6-.5 2.9-1.6 3.9s-2.5 1.5-4.3 1.5c-1.9 0-3.5-.5-4.6-1.6-1.2-1.1-1.7-2.5-1.7-4.2 0-2.8 1.5-5.3 4.6-7.4 3.8-2.7 8.5-4 14.2-4 4.3 0 8 .7 11.4 2 2.1.8 3.8 2.3 5.2 4.4 1.3 2.1 2 4.7 2 7.8v20.7c0 1.6.3 2.7.9 3.4s1.4 1 2.4 1c.6 0 1.7-.4 3.1-1.3M323 127.9c-6.2.8-10.4 2.1-12.6 3.9s-3.3 4.1-3.3 6.9c0 2 .5 3.6 1.5 4.7s2.5 1.6 4.3 1.6c2.9 0 5.3-1 7.2-3.1s2.9-4.9 2.9-8.4v-5.6z"/><path d="M394 145.6v4.1h-24.5v-4.1h2.6c1.4 0 2.4-.3 3-1 .7-.7 1-1.7 1-3v-17.7c0-3-.7-5.3-2.1-6.9s-3.2-2.4-5.4-2.4c-3 0-5.5 1.1-7.4 3.4s-2.9 5.6-2.9 10v13.6c0 1.3.3 2.3 1 3s1.6 1 2.6 1h3.1v4.1h-25.5v-4.1h3.3c1.3 0 2.2-.3 2.9-1s1-1.7 1-3v-24.2c0-1.4-.5-2.5-1.4-3.3s-2.2-1.2-3.7-1.2H340v-3.8l17-.9c.6 2.5 1.1 5.5 1.4 8.9 2.4-3.2 4.9-5.6 7.6-7.2s5.5-2.4 8.5-2.4c4.1 0 7.2 1.4 9.6 4 2.3 2.7 3.5 6.5 3.5 11.3v18.9c0 1.4.3 2.5 1 3.1s1.7 1 3.2 1h2.2v-.2zm17.9-38.9c4.5 0 8.7 1 12.6 3 3.8 2 6.6 4.5 8.5 7.7s2.8 7 2.8 11.5c0 7.1-2.4 12.6-7.3 16.4S418.1 151 412 151c-4.4 0-8.3-1-11.9-2.9-3.6-2-6.4-4.6-8.3-7.9s-2.9-7.1-2.9-11.2c0-6.3 2.2-11.6 6.6-15.8 4.2-4.4 9.7-6.5 16.4-6.5m.2 4.1c-3 0-5.4 1.3-7.2 4s-2.7 7.3-2.7 14c0 6.9.9 11.7 2.7 14.3s4.2 3.9 7.2 3.9c3.1 0 5.6-1.3 7.4-4 1.9-2.7 2.8-7.4 2.8-14 0-6.8-.9-11.5-2.8-14.2-1.8-2.7-4.3-4-7.4-4"/></g><g fill="#bebebe"><path d="M92.6 156.1h1.3l2.9 3.8v-3.8h1.4v6.2H97l-3-4v4h-1.4v-6.2z"/><use xlink:href="#B"/><use xlink:href="#C"/><path d="M120 156.1h2.9c.8 0 1.4.2 1.8.6.3.3.5.8.5 1.4 0 1-.5 1.6-1.3 1.9l1.5 2.2h-1.6l-1.3-2h-1.1v2H120v-6.1zm2.8 3c.7 0 1.1-.4 1.1-.9 0-.6-.4-.9-1.1-.9h-1.4v1.8h1.4zm4.5-3h1.4v6.2h-1.4v-6.2z"/><use xlink:href="#D"/><use xlink:href="#E"/><path d="M144.5 156.1h1.5l1.6 4.4 1.6-4.4h1.5l-2.5 6.3H147l-2.5-6.3z"/><use xlink:href="#E" x="14.2"/><path d="M164.8 156h1.3l2.7 6.3h-1.4l-.6-1.4h-2.6l-.6 1.4h-1.4l2.6-6.3zm1.4 3.7l-.8-2-.8 2h1.6zm4.2-3.6h1.4v5h3.1v1.2h-4.5v-6.2zm5.7 3.1c0-1.8 1.3-3.2 3.3-3.2 1.2 0 1.9.4 2.5 1l-.9 1c-.5-.4-1-.7-1.6-.7-1.1 0-1.8.9-1.8 1.9 0 1.1.7 2 1.8 2 .7 0 1.1-.3 1.6-.7l.9.9c-.6.7-1.4 1.1-2.6 1.1-1.8-.1-3.2-1.5-3.2-3.3z"/><use xlink:href="#F"/><use xlink:href="#C" x="82.4"/><path d="M202.4 156.1h4.8v1.2h-3.4v1.3h3v1.2h-3v2.4h-1.4v-6.1zm6.7 0h1.4v6.2h-1.4v-6.2z"/><use xlink:href="#C" x="104"/><path d="M222.7 156h1.3l2.7 6.3h-1.4l-.6-1.4H222l-.6 1.4H220l2.7-6.3zm1.5 3.7l-.8-2-.8 2h1.6z"/><use xlink:href="#C" x="119.6"/><path d="M236 161.3l3.4-4h-3.3v-1.2h5.1v1l-3.4 4h3.4v1.2H236v-1zm7.3-5.2h1.4v6.2h-1.4v-6.2zm5.9-.1h1.3l2.7 6.3h-1.4l-.6-1.4h-2.6l-.6 1.4h-1.4l2.6-6.3zm1.4 3.7l-.8-2-.8 2h1.6zm4.2-3.6h1.5l1.6 2.6 1.6-2.6h1.5v6.2h-1.4v-4.1l-1.8 2.7-1.7-2.6v4h-1.3v-6.2z"/><use xlink:href="#E" x="125"/><use xlink:href="#C" x="161.3"/><path d="M279.3 157.3h-1.9V156h5.2v1.3h-1.9v5h-1.4v-5z"/><use xlink:href="#B" x="183.7"/><path d="M295.9 156.1h2.5c1.5 0 2.4.9 2.4 2.2 0 1.4-1.1 2.2-2.5 2.2h-1v1.9h-1.4v-6.3zm2.5 3.1c.7 0 1.1-.4 1.1-.9 0-.6-.4-.9-1.1-.9h-1.1v1.9l1.1-.1z"/><use xlink:href="#F" x="118.9"/><use xlink:href="#G"/><use xlink:href="#G" x="7.2"/><path d="M324.5 156.1h1.4v5h3.1v1.2h-4.5v-6.2zm6.4 0h1.4v6.2h-1.4v-6.2z"/><use xlink:href="#D" x="203.6"/><path d="M341.4 159.2c0-1.8 1.4-3.2 3.3-3.2s3.3 1.4 3.3 3.2-1.4 3.2-3.3 3.2-3.3-1.4-3.3-3.2zm5.2 0c0-1.1-.8-2-1.9-2s-1.9.9-1.9 1.9c0 1.1.8 2 1.9 2s1.9-.8 1.9-1.9z"/></g><path d="M442.7 133.5l7.2-.3V147c0 .4.1.7.4.9.2.2.6.3 1.1.3h1.1v1.6h-9.8v-1.6h1.1c.6 0 1-.1 1.2-.4s.4-.7.4-1.4V137c0-.6-.2-1.1-.5-1.4s-.8-.5-1.4-.5h-.7l-.1-1.6zm4.4-9.4c.8 0 1.4.3 2 .8.6.6.8 1.2.8 2s-.3 1.5-.8 2c-.6.6-1.2.8-2 .8s-1.5-.3-2-.8c-.6-.6-.8-1.2-.8-2s.3-1.5.8-2c.6-.6 1.3-.8 2-.8" fill="#221f20"/><path d="M438.6 144.6c.8 0 1.4.3 2 .8.6.6.8 1.2.8 2s-.3 1.5-.8 2c-.6.6-1.2.8-2 .8s-1.5-.3-2-.8c-.6-.6-.8-1.2-.8-2s.3-1.5.8-2 1.2-.8 2-.8" fill="#8e0000"/><g fill="#221f20"><path d="M457.6 126.9h1.5v6.6h5.3v1.9h-5.3v10.3c0 .7.2 1.2.5 1.6s.8.6 1.4.6c1.6 0 2.5-1.5 2.6-4.5h1.5c0 1.6-.3 2.9-.8 3.9s-1.1 1.7-2 2.3c-.9.5-1.9.8-3 .8-1 0-1.8-.2-2.5-.6s-1.3-1-1.7-1.8a5.42 5.42 0 0 1-.6-2.5v-9.9h-2.9v-1.9c1.8 0 3.1-.6 4.1-1.7 1-1.3 1.6-2.9 1.9-5.1M161.7 7h67.8l.8 26.5h-4.7c-.8-8.2-2.7-13.8-5.7-17-3-3.1-7.6-4.7-13.8-4.7h-11.4c-1.7 0-2.9.3-3.6 1-.8.7-1.1 1.7-1.1 3v25.7h4.1c8.3 0 13-4.9 14.3-14.8h4.6v35.5h-4.6c-.1-3.8-.8-6.8-1.9-9s-2.6-3.9-4.6-5.2-4.2-1.9-6.8-1.9h-5.2v28c0 1.5.4 2.6 1.2 3.3 1.1 1 2.5 1.5 4.1 1.5h7.3v4.8h-40.7V79h6.8c1.6 0 2.8-.4 3.7-1.3.9-.8 1.3-1.9 1.3-3.2V15.8c0-1.5-.4-2.5-1.3-3.1-.8-.6-2.6-.9-5.2-.9h-5.3l-.1-4.8z"/><path d="M257.2 77.2l1.8 3.2c-1.8 1.2-3.4 2.1-4.8 2.5-1.4.5-3 .7-4.7.7-2.5 0-4.5-.5-6.1-1.6-1.5-1.1-3-3.1-4.2-6-3 2.9-5.6 5-8 6-2.4 1.1-5 1.6-8 1.6-4.1 0-7.3-.9-9.6-2.8s-3.5-4.3-3.5-7.2c0-4.4 2.1-7.9 6.4-10.6 3.4-2.1 10.9-4.2 22.4-6.3v-5.9c0-2.3-.8-4.2-2.3-5.7s-3.6-2.2-6.2-2.2c-2 0-3.7.4-5.2 1.3-1 .6-1.5 1.1-1.5 1.7 0 .3.2.7.6 1.3.8 1.3 1.2 2.6 1.2 3.9 0 1.6-.5 2.9-1.6 4-1.1 1-2.5 1.5-4.3 1.5-1.9 0-3.5-.5-4.6-1.6-1.2-1.1-1.7-2.5-1.7-4.2 0-2.8 1.5-5.3 4.6-7.5 3.8-2.7 8.6-4 14.3-4 4.3 0 8.1.7 11.4 2 2.1.8 3.9 2.3 5.2 4.4s2 4.7 2 7.8v20.8c0 1.6.3 2.7.9 3.4s1.4 1 2.4 1c.7-.1 1.8-.6 3.1-1.5M239 60.5c-6.2.8-10.5 2.1-12.7 3.9s-3.3 4.1-3.3 7c0 2 .5 3.6 1.6 4.7 1 1.1 2.5 1.6 4.4 1.6 2.9 0 5.3-1 7.2-3.1s2.9-4.9 2.9-8.5v-5.6h-.1zm54-36h3.9v16.8h13.5V46h-13.5v26c0 1.7.4 3.1 1.3 4s2 1.4 3.5 1.4c4.1 0 6.3-3.8 6.5-11.4h3.9c-.1 4.1-.7 7.3-1.9 9.8s-2.9 4.4-5.1 5.7-4.7 2-7.5 2c-2.4 0-4.6-.5-6.4-1.5s-3.2-2.5-4.3-4.4c-1.1-2-1.6-4.1-1.6-6.4V46H278v-4.7c4.4 0 7.9-1.6 10.4-4.4s4-6.9 4.6-12.4"/><path d="M265 24.5h3.9v16.8h13.5V46h-13.5v26c0 1.7.4 3.1 1.3 4s2 1.4 3.5 1.4c4.1 0 6.3-3.8 6.5-11.4h3.9c-.1 4.1-.7 7.3-1.9 9.8s-2.9 4.4-5.1 5.7-4.7 2-7.5 2c-2.4 0-4.6-.5-6.4-1.5s-3.2-2.5-4.3-4.4c-1.1-2-1.6-4.1-1.6-6.4V46H250v-4.7c4.4 0 7.9-1.6 10.4-4.4 2.4-2.8 4-6.9 4.6-12.4m65.5 14.6c4.6 0 8.8 1 12.6 3s6.7 4.6 8.6 7.8 2.8 7 2.8 11.5c0 7.2-2.4 12.7-7.3 16.5s-10.4 5.8-16.6 5.8c-4.4 0-8.4-1-12-3s-6.4-4.6-8.4-8c-1.9-3.3-2.9-7.1-2.9-11.3 0-6.3 2.2-11.6 6.6-15.9s10-6.4 16.6-6.4m.3 4.2c-3 0-5.4 1.3-7.2 4s-2.7 7.4-2.7 14.1c0 7 .9 11.8 2.7 14.4s4.2 4 7.2 4c3.1 0 5.6-1.4 7.5-4.1s2.8-7.4 2.8-14c0-6.8-.9-11.6-2.8-14.3-1.9-2.8-4.4-4.1-7.5-4.1m-258.6-.4l18.2-.8v34.8c0 .9.3 1.7.9 2.2s1.5.8 2.7.8h2.8V84H72.2v-4.1h2.7c1.5 0 2.5-.3 3.1-1s.9-1.8.9-3.5V51.7c0-1.5-.4-2.6-1.3-3.5-.9-.8-2.1-1.2-3.6-1.2h-1.8v-4.1zm11.2-23.6c2 0 3.6.7 5 2.1a6.94 6.94 0 0 1 2.1 5.1 6.94 6.94 0 0 1-2.1 5.1c-1.4 1.4-3.1 2.1-5 2.1a6.94 6.94 0 0 1-5.1-2.1c-1.4-1.4-2.1-3.1-2.1-5a6.94 6.94 0 0 1 2.1-5.1c1.4-1.5 3.1-2.2 5.1-2.2"/><path d="M95.8 19.1l19.2-1v58.2c0 1 .3 1.9 1 2.5s1.6.9 2.9.9h2.6v4.1H96.8v-4.1h2.8c1.3 0 2.2-.4 2.9-1 .6-.7.9-1.7.9-3.1V27.7c0-1.5-.4-2.6-1.2-3.4s-1.9-1.2-3.3-1.2h-3.1v-4z"/></g><path d="M115.1 29.6c-1.1-.4-2.5.1-4.1 1.8-1.6 1.6-2.9 3.8-4 6.5-1.1 2.8-1.6 5.3-1.5 7.5 0 2.3.7 3.6 1.8 4.1.2.1.4.1.6.1 1 .1 2.1-.5 3.4-1.9 1.5-1.6 2.8-3.8 3.9-6.5s1.6-5.2 1.6-7.5c0-1.6-.3-2.8-.9-3.5-.2-.3-.5-.5-.8-.6m29.5 16.5s-4.2-6.2-3.3-7c1-.8 1.9-3.3 5-2.3 0 0 3.2-1.5 4.6-.8l3.2.7 3.6 2.6 3.8 3.3s2.4.2 2.6 1l.5 2.2s2.2.7 2.1 3.4c0 0 1.6 3.3-4.9 8.8l-2.8 2.2.8.6 4.4 2.2 2.2.6 3.2 8.3h1.2l1.8 4.3v1.6l1.2 6-9.7 12.3v1.5l11.5 9.8.5.7s-16.7 11.2-24.7 10.7l-12.7-12-9.8-13L147.4 82l-7-10.1-.5 2.6-4.8 2.2-2.3-2.1-3.8 2.1-4.3-.9-3.5-9.7-.6-5.9-1.3-4.9-.4-1 1-1.3 2.2-.2 1.9.3.9.3 1.1-.4 1.1 1.3-.6 1.9 1.9-.2v2l-1.1 1.6-1.7.3 4.4 8.7.5-3.7 6-2 2.6-.5 4.1-1 .6 1.3 2.3-2.9 1.3-.4v-.6l-3.9-.8-.8-2.1 2.9-5.5-2.3-.7 1.3-3.6z" fill="#fff"/><path d="M129.7 67c-.1 0-.1 0 0 0-.1.1-.1.1 0 0m15.3-6.8c-.1 0 0 0 0 0m-21.1-7.3h-.1.1m41.9 28.5l-.1-.2c-.1 0-.2.1-.3.1h-.1c-.1 0-.1 0-.2.1h-.4c-.1-.1-.2-.1-.3-.1-.1-.1-.2-.1-.4-.1-.1-.1-.2-.2-.4-.3 0 .1 0 .3.1.5v1.7c0 .4.1.9.2 1.3 0 .3 0 .5.1.8s.1.5.1.7c.1.2.1.4.1.7.1-.2.2-.4.2-.6.1-.2.2-.4.2-.7.1-.2.1-.4.2-.5 0-.1.1-.2.1-.3.2-.5.3-1 .4-1.4l.1-.1c.1-.1.1-.2.1-.3s.1-.2.2-.4c0-.1 0-.1.1-.2 0-.1.1-.1.1-.2v-.1l.1-.1-.1-.1c0-.1 0-.1-.1-.2m-15.5-33.8c-.1-.1-.5-.3-1.2-.5-.2-.1-.4-.2-.4-.3h-.1c-.2 0-.4-.1-.5-.1 0 0-.1.1-.1.2-.1 0-.2.2-.4.5l-.2.5c0 .1 0 .2.1.2l.2.2c.2.2.4.3.7.3.1 0 .2 0 .5-.1.3 0 .5-.1.7-.1 0-.1-.3-.2-.6-.3-.4-.1-.6-.2-.7-.3h-.1c0-.1.1-.1.1-.1.1 0 .2.1.3.1.4 0 .6 0 .8-.1 0 0 .1 0 .1.1l1.5.6h.1l-.8-.8m.4-5.5c3.2 2.2 5.9 4.6 8.2 7.2.7.7 1.2 1.5 1.5 2.3.4 1 .6 2 .5 3.1-.1.6-.2 1.3-.4 2-.1.4-.3.7-.4 1.1v.1c.1-.1.3-.2.4-.3 2-2.8 1.5-5.9-1.5-9.4-.1-.1-.1-.2-.2-.3l-1.2-1.2v-.1c-2.8-2.9-5.9-5.5-9.2-7.8-1.5-.9-2.9-1.3-4.1-1a3.25 3.25 0 0 0-1.3 1c-.5 1-.5 1.8 0 2.6h.1L145 45c.3-2 .9-3.2 1.9-3.8.8-.6 2.2-.3 3.8.9m-5.1 7.5c-.2 0-.3.1-.3.2 0 0 0 .1.1.2s.2.1.2.1c.2 0 .3-.1.3-.4 0-.1-.1-.1-.3-.1m0-1.8l.1-.1v-.3c0-.1 0-.2-.2-.2-.1-.1-.2-.1-.4-.1-.1 0-.2.1-.3.1 0 0-.1.1-.1.2s-.1.2-.1.3c.1 0 .1 0 .1.1v.2h.4c-.1.1-.1.2-.1.2s0 .1.1.1a.76.76 0 0 0 .4-.2c.1-.2.1-.3.1-.3m6.9-1.9c-.2-.2-.4-.3-.6-.4-.4-.1-.9-.2-1.6-.3-1.5-.2-2.2-.1-2.2.4v.1c.1 0 .1.1.2.1s.1.1.2.1h.4c.1-.1.2-.2.4-.2h1.8c.1 0 .1 0 .2.1h.2c.3.1.5.2.6.2h.4v-.1" fill="#221f20"/><path d="M114.6 31.1c-1-.4-2.1.1-3.5 1.5-1.3 1.4-2.5 3.3-3.4 5.6-.9 2.4-1.4 4.5-1.3 6.4 0 2 .6 3.1 1.5 3.5a.9.9 0 0 0 .5.1c.9.1 1.8-.5 3-1.6 1.3-1.4 2.4-3.3 3.3-5.6.9-2.4 1.4-4.5 1.4-6.4 0-1.4-.3-2.4-.8-3a3.04 3.04 0 0 0-.7-.5" fill="#8e0000"/><g fill="#221f20"><path d="M145.5 46.7c.1 0 .1 0 .1-.1s0-.2-.2-.3a.76.76 0 0 0-.4-.2v.4l.2.2c.1-.1.1 0 .3 0m13.5 5.4c-.1.1-.3.1-.5.2-.4.2-.6.2-.7.2v.1c0 .2 0 .3.2.3.1 0 .2-.1.4-.1.1-.1.3-.1.3-.1.3 0 .5.2.7.5.1.2.1.4.1.6s-.1.4-.3.6-.3.3-.3.4 0 .1.1.1c.2-.1.3-.1.4-.2v.1c.2-.1.4-.4.5-.7 0-.2.1-.3.1-.5v-.4c0-.2 0-.5-.2-.7-.1-.2-.4-.4-.8-.4m-1.3 1.3h-.2c0 .1-.1.1-.1.1l-.1.1v.1s.1.1.1.2c.1.1.2.2.2.3.1 0 .1.1.1.2v.1c.1.3.2.5.3.7.2 0 .4-.3.4-.9-.1-.6-.4-.9-.7-.9m0-6.8z"/><path d="M156.1 56.3c.1-.1 0-.1 0 0-.5-.1-.8-.2-.9-.3s-.2-.3-.2-.5c-.1-.1-.1-.2-.1-.3V55c-.1 0-.4.2-.7.7s-.5.8-.5 1.1.2.5.6.5.8-.1 1.4-.2c.6-.2 1-.3 1.2-.5-.1 0-.3 0-.4-.1l-.4-.2m1.7-10z"/><path d="M163.8 53.6c.4 0 .6-.1.8-.2a.76.76 0 0 0 .2-.4c0-.1-.1-.2-.1-.3-.1-.1-.3-.1-.5 0v-.5s-.1-.4-.2-.5c-.4-.4-.7-.1-.7.7s.2 1.2.5 1.2m-14.4-15.3l.3.3c.1.1.3.2.5.3l3.1 2.3 1.1 1c.5.4.8.8 1.1.9.4.3.8.7 1.1 1 .1.2.3.5.6.9.1.3.2.5.4.8.1.2.3.3.4.4v.1l1.2 1.2c.1.1.1.2.2.3l.2.2c.4.2.8.5 1.2.8.8.5 1.2 1.3 1.2 2.4.1 1 .2 1.4.5 1.4.2 0 .4-.8.3-2.5 0-.6-.2-1.2-.6-1.7-.3-.4-1-1-2.2-1.7-.6-.4-1.1-1-1.6-1.7-.6-.8-1-1.4-1.4-1.7l-4-3.4c-1.7-1.3-3.4-2.3-4.9-3 0 0-.1 0-.1.2.1.2.5.6 1.4 1.2m.2 54.6l-2.9 1.9c4.1 5.6 9.2 10.9 15.2 15.7.1-.1.3-.2.4-.3.8-.5 1.6-1.1 2.5-1.6-6-4.8-11-10.1-15.2-15.7m-24.2-37.2s.1 0 .2.1v-.4c0-.9-.2-1.5-.5-1.8.3.6.4 1.3.3 2.1m23.5 28l-17.1 10.8 2 3 17.1-10.8zm2.8 4.5L135 99l.6.9 16.7-10.8zm-12.8 11.4l-2.5 1.6c4.4 5.4 9.6 10.6 15.7 15.5.7-.5 1.4-.9 2-1.3-6-4.9-11.1-10.2-15.2-15.8m6.9-4.2c-.9.5-1.7 1.1-2.7 1.7 4.1 5.6 9.2 10.8 15.2 15.7.2-.1.3-.2.5-.3.8-.5 1.5-.9 2.2-1.4-5.9-4.8-11-10.1-15.2-15.7"/><path d="M176.4 107c-.1-.2-.2-.4-.4-.5a118.21 118.21 0 0 1-9.5-7.7c-.1-.1-.2-.2-.3-.2l-.3-.3c-.1-.1-.2-.1-.3-.2s-.2-.1-.2-.2c-.1-.1-.2-.1-.3-.2s-.2-.2-.3-.2l-.3-.3c-.1-.1-.1-.2-.2-.2.1-.1.2-.2.3-.2.1-.1.2-.2.3-.2l.1-.1c0-.1.1-.1.1-.2.1-.1.1-.2.2-.3 0-.2.1-.3.1-.4v-.1c.1-.1.2-.1.2-.2l.2-.2c.1-.1.2-.1.3-.2 4.7-4 7.2-7.7 7.5-11v-1l-1-4.5v-.2l-.1-.2v-.2c.1-.1.2-.2.3-.4.4-.7.5-1.5.2-2.3l-.7-2.4c-.2-.8-.6-1.3-1.1-1.5h-.1s-.2-.1-.3-.1-.3-.1-.4-.1c-.1-.1-.1-.3-.2-.3-.1-.1-.1-.2-.2-.4 0-.1-.1-.2-.1-.3s0-.1-.1-.2c0 0-.1-.1-.1-.2-.1-.1-.1-.2-.1-.2 0-.1-.1-.1-.1-.1-.9-2-2-3.8-3.2-5.7v-.1c-.1-.1-.1-.2-.2-.2-.7-.5-1.6-.9-2.6-1.4-.1-.1-.2-.1-.3-.1-.1-.1-.2-.1-.4-.1-.1 0-.2-.1-.3-.1s-.2 0-.3-.1l-.1-.1s-.2-.1-.3-.1-.2-.1-.3-.1h-.4s-.2-.1-.3-.1v-.4c0-.1-.1-.1-.1-.1-.1-.2-.1-.3-.3-.3l-.1-.1v-.1s-.1-.1-.2-.1-.2-.1-.3-.2l-.1-.1c.2 0 .3 0 .4-.1.1 0 .1-.1.2-.2.1 0 .1 0 .1-.1.1-.1.2-.1.3-.2s.2-.2.3-.2.2-.1.3-.2.1-.2.2-.3c1.5-1.2 2.9-2.5 4.1-4 0 0 .1 0 .1-.1 1.6-2.7 1.6-5.2 0-7.6-.1 0-.1-.1-.1-.1-.2-.2-.4-.5-.6-.7-.3-1.9-1.2-2.9-2.9-3-2-1.8-4.4-3.5-7-5.1-2.3-1.6-4.5-2.2-6.8-1.9h-.1c-.1 0-.1 0-.2.1h-.3c0 .1 0 .1-.1.1s-.3 0-.4.1-.3.1-.4.1c-.1.1-.3.1-.4.2h-.1c-1.7-.3-3.2.2-4.6 1.7-.9 1.1-.8 2.5.3 4.1l2 3.6c0 .1-.1.3-.1.4v.9s0 .1-.1.1c0 .1-.1.2-.2.3v.1c0 .1-.1.2-.1.3s-.1.2-.1.3-.1.2-.1.3v.3l-1-.1-25.4-19.2c-.3-.3-.7-.6-1.2-.8-1.4-.6-3.1 0-5 2-1.6 1.7-3 4-4.2 7-1.1 2.9-1.7 5.6-1.6 8 .1 2.8.8 4.5 2.4 5 .3.1.5.2.8.2h.5c.1 0 .2 0 .3-.1l6.2.9v.3c.1 0 .1 0 .1.1 0 0 .1.1.1.2l.2.2c.1 0 .1 0 .2.1h.2c.1 0 .1 0 .2-.1.1 0 .1 0 .1.1.3 1.5.7 2.6 1.5 3.4 0 0 .1 0 .1.1.3.2.6.5 1 .6 0 0 .1.1.2.1s.1.1.2.1v.2s0 .2.1.3c0 .1 0 .2.1.4v.1c.3 1.1.7 2 1.1 2.5 0 .3.1.5.2.9 0 1.4.4 3.9 1.3 7.8.5 1.9 1 3.5 1.6 4.8 0 .1.1.2.2.3s.1.2.2.3c0 .1.1.2.2.4.1.1.2.2.2.3.1.1.1.2.2.3s.1.2.2.3l.7.7c.1 0 .1.1.1.1s.1 0 .1.1c.1 0 .1 0 .1.1h.1l.2.2h.1l.6.3h.1c.1 0 .1.1.2.1s.1 0 .2.1h.8s.3 0 .5-.1c.2 0 .3-.1.4-.1s.3 0 .4-.1c.1 0 .2-.1.4-.1.1-.1.2-.1.4-.1.1-.1.2-.1.4-.1.2-.1.3-.1.5-.2.1 0 .2-.1.3-.2.1 0 .2-.1.3-.1.1-.1.2-.1.3-.2s.2-.1.4-.2c.1 0 .2-.1.3-.2h.1l.6-.3c.1 0 .1.1.1.1l.1.1c.1.1.2.1.3.2.1 0 .2.1.4.2.3.1.6.2.9.2.2 0 .5 0 .6-.1.1 0 .2 0 .3-.1h.2l2.5-1h-.1c.4-.2.8-.3 1.1-.6.1-.1.2-.2.3-.4l.3-.6c0 .3 0 .5.1.7 0 .2.1.4.1.5.6 2.9 1.2 5.4 1.8 7.4v.1s.1.2.1.3 0 .1.1.2v.1c0 .1.1.2.1.3v.1c.1.1.1.2.1.3.1.1.1.2.1.3-.1.1-.2.1-.3.2s-.2.1-.3.2c-.1 0-.2.1-.3.2h-.1s-.1.1-.2.1c0 0-.1 0-.1.1-.1 0-.1.1-.2.1 0 .1-.1.1-.2.2l-.1.1c-.1 0-.2.1-.2.2h-.1c-.1.1-.2.1-.3.2-4.1 2.8-8.1 5.1-11.9 7-.1.1-.3.2-.4.4-.1.1-.1.3-.1.5 0 .1.1.3.2.5 7.4 10.7 15.1 19 22.9 25h.1c.1.1.1.1.2.1s.2.1.3 0h.1c8.9-1.7 17-5.5 24.2-11.3.2-.1.2-.3.3-.5.1.2.1 0 0-.2m-61.2-65.9c-1.1 2.8-2.4 5-4 6.6-1.2 1.3-2.4 2-3.3 1.9-.2 0-.4 0-.6-.1-1.1-.5-1.6-1.8-1.6-4-.1-2.3.5-4.8 1.5-7.6 1.1-2.8 2.4-5 4-6.6 1.5-1.6 2.8-2.1 3.9-1.7.3.1.5.2.7.5h.1c.6.7.9 1.8.9 3.3 0 2.4-.5 4.9-1.6 7.7m54.6 30.8c.8-.2 1.3.1 1.5.9l.7 2.4c.2.7.1 1.4-.5 1.9h-.1c-.2.2-.5.4-.8.5l-1.1.5-3.4 1.6c-.2.1-.4.2-.6.2-.7.2-1.2.1-1.5-.3-.1-.2-.2-.3-.3-.5l-.8-2.4c0-.1 0-.3-.1-.5 0-.2 0-.5.1-.6s.1-.2.2-.3c0-.1.1-.1.1-.2.2-.3.6-.5 1.1-.7l1.6-.7 3.9-1.8zm-5.2 9.4h.4c.1-.1.2-.1.2-.1h.1c.1 0 .2 0 .3-.1l.1.2v.1c0 .1.1.1.1.1s0 .1-.1.1v.1s0 .1-.1.2c-.1 0-.1.1-.1.2-.1.1-.1.2-.2.4-.1.1-.1.2-.1.3 0 0 0 .1-.1.1-.1.4-.3.9-.4 1.4 0 .1 0 .1-.1.3 0 .2-.1.4-.2.5-.1.2-.1.4-.2.7-.1.2-.1.4-.2.6 0-.2 0-.5-.1-.7 0-.2-.1-.5-.1-.7-.1-.3-.1-.5-.1-.8-.1-.4-.1-.9-.2-1.3v-1.7s0-.3-.1-.5c.1.1.3.2.4.3.1 0 .2.1.4.1m-3.5-14.7v-.1c0-1.3.2-2.8.4-4.4.2.1.5.2.8.3 1.5.5 2.7 1.1 3.6 1.7 1.6 2.5 3 5.1 4.1 7.7l-1.7.8-3.5 1.6c-.5.2-.9.5-1.2.8h-.1s-.1-.1-.1-.2h-.1s-.1-.1-.2-.1c0 0-.1 0-.1-.1l-.3-.3-.8-1.4c-.1-.3-.1-.5-.2-.8v-.1c0-.1-.1-.2-.1-.3-.4-1.2-.5-3-.5-5.1m.6 25.8h.2c.2 0 .4-.1.6-.2.6-.7 1.2-1.6 1.8-2.5.2-.5.5-.9.7-1.3v.1c.2-.5.4-.9.6-1.4.3-.7.7-1.4 1.2-2.3l1.5-3.5.2-.2c.1 0 .1-.1.1-.1.4-.3.8-.5 1.1-.5h.1c0-.1.1-.1.1-.2V80c0-.1-.1-.1-.1-.1-.3 0-.7.1-1.1.4.5-.5 1-.8 1.3-1 1.2-.5 1.9-.9 2.3-1.1 0 .1.1.2.1.3l1 4.6v.1c-1.2 2.6-2 4.1-2.5 4.7-.3.3-1 1.1-1.9 2.4-.1.1-.2.2-.3.4-.3.4-.7.8-1 1.2l-.5.5c-.1 0-.1.1-.2.2 0 0 0 .1-.1.1-.7.6-1.3 1.2-1.8 1.8-.1-.1-.2-.3-.3-.3h-.1c-.1 0-.1 0-.1.1-.1 0-.1.1-.1.1l.4.4-.2.2c-.3.3-.9.6-1.7.9v-.2l.1-.1v-.1c0-.1.1-.1.1-.1 0-.1.1-.1.1-.2v-.1c0-.1 0-.1-.1-.1h-.1s-.1 0-.1.1-.1.2-.2.3l-.1.1h.1c-.1.1-.2.2-.4.2h-.2c-.1 0-.1-.1-.1-.1 0-.1-.1-.1-.1-.1-.1 0-.1.1-.1.1v.4c-.1.1-.1.2-.1.3s-.1.2-.2.2c-.1.1-.2.1-.4.1-.1 0-.2-.1-.3-.2 0-.6.2-1.1.7-1.6l.7-.7s.1 0 .1-.1c.1 0 .1-.1.1-.1v-.1s-.1-.1-.2-.1h-.1c-.1 0-.1.1-.1.1-.3.2-.5.5-.8.7-.2.2-.3.4-.4.7l-.1.1c0 .1-.1.3-.1.4-.1.1-.1.3-.1.4s-.1.1-.2.2h-.3c-.1 0-.1 0-.3-.1l-.1-.1V96c-.1 0-.1-.1-.1-.1.1-.7.6-1.5 1.2-2.3l.1-.1c0-.1.1-.1.1-.2v-.1s0-.1-.1-.1h-.1c-.1 0-.1 0-.1.1 0 0 0 .1-.1.1 0 0-.1 0-.1.1-.1.2-.2.3-.4.5v.1c-.3.3-.4.6-.5.8s-.3.5-.3.8c0 0 0 .1-.1.2h-.4l-.3-.3c0-.1-.1-.1-.1-.1l.5-1.2c.1-.4.3-.7.5-.9.1-.2.3-.4.5-.5l.1-.1c.1 0 0-.1 0-.2 0 0-.1 0-.1-.1-.1 0-.1 0-.1.1-.2.2-.4.3-.6.6s-.4.6-.6 1l-.1.4v.1c-.1.2-.3.3-.4.4 0 0-.1 0-.1-.1 0 0 0-.1-.1-.1 0-.2 0-.3.1-.6.3-.9.7-1.5 1.1-2 .1-.1.1-.1.2-.1h.1c.1-.1.2-.1.4-.1h.1c.2-.2 1-.1 1.8.2m-18-35.4c0-.2 0-.3.1-.4.2 0 .5-.1.8-.1.1-.1.3-.2.5-.2.7-.4 1.2-1 1.6-1.9v-.1c.1-.3.2-.6.2-.8s.1-.5 0-.7v-.1c0-.2 0-.5-.1-.7-.1-.6-.4-1-.9-1.3-.1-.1-.3-.2-.4-.3s-.2-.1-.3-.2l-.1-.1h-.2c0 .1 0 .2.1.2l-.4-.1s0-.1-.1-.2h-.2v-.1c-.1-.7 0-1.2.3-1.7l.3-.6c.1-.2.1-.5.1-.7v-.4c0-.2.1-.4.1-.6l-2.1-4c-1-1.4-1.1-2.5-.3-3.3 1.2-1.3 2.5-1.8 4-1.5 0 0 .1 0 .1.1 2.8-1.2 5.7-.9 8.5 1.2 2.7 1.6 5.1 3.3 7.1 5.2 1.4 0 2.3.8 2.5 2.6.2.3.5.6.7.9 1.4 2.1 1.4 4.4 0 6.8-1.2 1.5-2.6 2.8-4.1 4-.1.1-.1.3-.3.4 0 0 0 .1-.1.1-.3.2-.7.4-1 .7.1 0 .1-.1.1-.1v-.1l-.1-.1h-.1c-.1.1-.2.3-.3.4l-.5.5c-.1.1-.2.2-.2.3h-.6l-.1.1s-.1 0-.1.1h-.1v.1s0 .1.1.1c0 0 .1.1.1 0h.1l.1-.1h.1c.1-.1.2-.1.3-.1l.3.1c.3.2.5.4.8.6 0 .2-.1.4-.2.6-.4 1.5-1.3 3-2.5 4.5-.3-.3-.5-.7-.6-1 0-.1-.1-.1-.1-.1 0-.1-.1-.2-.1-.2s0-.1-.1-.1c0-.1-.1-.2-.1-.2-.1-.3-.3-.5-.5-.6l-.2-.2h-.2v.2l.1.1c.1 0 .1 0 .2.1a.78.78 0 0 1 .4.4s.1.1.1.2c.1.1.1.1.1.2-.3.3-.6.6-1 .9-.1 0-.1.1-.1.1-.7.6-1.7 1.2-2.7 1.8-.1.1-.1.1-.2.1-.1.1-.3.2-.4.3v.1c-.1 0-.1 0-.1.1v.1l-.8.5h-.2c-.3.2-.5.3-.8.5l-.3-.3v-.1.1l-1.4-1.4s-.1-.2-.2-.2l-.7-.9c-.1-.1-.1-.2-.2-.3v-.1s-.1-.1-.1-.2l-.6-1c0-.1 0-.2-.1-.2-.1-.1-.1-.1-.1-.2l-.1-.3c.1-.2.4-.3.4-.5.4-.5.6-.7 1-.7-.3 0-.5 0-.7.2l-.4.4c0 .1-.1.1-.2.2-.1.2-.3.4-.4.5h-.2l-.2.1-.1.1c.1-.4.1-.8.2-1.2.2-.9.4-1.5.5-2V61c0-.1 0-.1-.1-.1.1-.4.3-.6.4-.7 0 0 .1 0 .2-.1l.9-.3c.1-.1.2-.1.3-.1v2.6c0 .1 0 .1.1.1h.1v.1h-.1c.1.1.1.2.1.3h.1s0 .1.1.2l.1.3c0-.2-.1-.3-.1-.5v-.3c-.1 0-.1-.1-.1-.1h.1v-.9c-.1-.1-.1-.2-.1-.2v-1.8c0-.3.1-.7.1-1.1.6 0 1.3 0 2.1-.2.2 0 .4-.1.6-.1 1.1-.2 2-.3 2.8-.2h.1c.1 0 .1-.1.1-.1s0-.1-.1-.1l-.1-.1h-.3c-.7 0-1.6.1-2.6.2-1.1.2-2.1.4-3 .7h-.8c-.8 0-1.5-.2-2.2-.4-.6-.3-1-.6-1-1.1l-.1-.2zm6.8 18.9c.1-.1.3-.2.5-.2s.4.1.5.2.2.3.2.5-.1.4-.2.5-.3.2-.5.2-.4-.1-.5-.2c-.2-.1-.2-.3-.2-.5-.1-.2 0-.4.2-.5m-.3-3.5c-.1-.1-.2-.3-.2-.5s.1-.4.2-.5c.2-.1.3-.2.5-.2s.4.1.5.2.2.3.2.5-.1.4-.2.5c-.1.2-.3.2-.5.2s-.4-.1-.5-.2m.9 8c.1-.1.3-.2.5-.2s.4.1.5.2.2.3.2.5-.1.4-.2.5c-.1.2-.3.2-.5.2s-.4-.1-.5-.2-.2-.3-.2-.5.1-.4.2-.5M127.9 55v-.4s0-.1.1-.2c0-.1 0-.1.1-.1 0-.1.1-.1.2-.1s.2 0 .2-.1c.1-.1.2-.1.2-.1.1 0 .1-.1.1-.2.1-.1.1-.2.2-.3l.7.1h.1l1.7.3.3.1 8.1 1.2 2.2 1.7c.1 0 .1.1.2.1s.1.1.2.1v.4c.1.1.1.3.2.4s.2.3.4.4v.1l.1.1c.1.1.3.2.5.3 0 0 .1 0 .1.1.1 0 .1 0 .2.1h.1c.2.1.4.1.6.2h1.4l-.6.2h-.1s-.1 0-.1.1l-.3.3s-.2.3-.2.4h.1v-.1h-.1l-1.4.2h-.4c-.1 0-.3 0-.4.1-.6 0-1.1.2-1.7.3h-.1c-.2.1-.5.1-.7.2h-.2c-.5.2-1.4.6-2.8 1.2-.1 0-.2.1-.4.1h-.1s-.2.1-.3.1c0 0-.1 0-.1.1-.1 0-.2.1-.2.1-.1 0-.2-.1-.3-.2h-.1c-.6-.3-1.3-.3-2 0l-2.4 1c-.3.1-.5.2-.7.3-.1.1-.2.1-.3.2-.6.5-.8 1.3-.7 2.3v.1c0 .1.1.2.1.4v.4l-.1-.1c-.1-.1-.1-.1-.1-.2h-.1v-.1l-.1-.1c-.5-.6-1-1.5-1.5-2.5-.1-.1-.1-.3-.2-.4 0-.1-.1-.1-.1-.2s-.1-.3-.2-.5c0-.1-.1-.2-.1-.3s-.1-.2-.2-.3c0-.1 0-.2-.1-.3 0-.1-.1-.2-.1-.3s-.1-.2-.1-.3-.1-.2-.1-.3 0-.2-.1-.3v-.1s0-.2-.1-.3c.1-.1.2-.1.3-.2.1 0 .2-.1.3-.2s.2-.1.3-.2c0 0 .1 0 .1-.1.1-.1.2-.1.2-.2.1 0 .1-.1.2-.2.1 0 .1-.1.1-.1.2-.2.4-.4.6-.7 0-.1 0-.1.1-.2.2-.6.3-1.2.2-1.7v-.2s-.1-.1-.1-.2c0 0 0-.1-.1-.1v-.2l-.3-.3V55h-.3zm-9-1.1c0 .1 0 .2-.1.2-.4-.6-.7-1.5-.8-2.6l4.7.7h.3l2.8.4h-.4c-.1 0-.3 0-.5.2l-.1-.1c-.2 0-.4-.1-.5 0h-.3l-.1-.1c-.1-.1-.1-.1-.2-.1 0-.1-.1-.1-.2-.1h-.5c-.1-.1-.2 0-.3 0s-.3.1-.5.1c0 0-.1.1-.2.1-1.4-.4-2.5 0-3.1 1.3m5-1h-.1.1zm7.9 21.2l-.8.5c-1.5.8-2.5 1.2-3 1.2-.8 0-1.9-.3-3.1-.9 0 .1.1.2.2.3-1.1-1.4-2-3.6-2.7-6.6-.9-3.9-1.3-6.4-1.3-7.7l-.1-.1c-.1-.4-.2-.7-.1-.9-.5-.6-1-1.7-1.3-3.4.1.1.2.1.4.1.6.1 1.1.2 1.4.3h.1c.2 0 .4.1.5.1.3 0 .5.1.6.2.2.2.4.3.5.2.2-.1.5-.1.8-.1l1.4.3c.1 0 .3.1.5.3.2.1.3.3.4.3s.3-.1.4-.3l.2-.3s-.1-.1-.1-.2c-.1-.1-.3-.3-.6-.4-.5-.3-.7-.5-.8-.8v-.4c-.3.4-.3.8-.1 1.1-.2.2-.4.3-.7.3h-.1c-.1 0-.1-.1-.2-.1v-.7l.1-.9c0-1-.1-1.7-.3-2 .2 1.4.2 2.5 0 3.3-.4.3-.9.2-1.2-.1.1-.1.1-.3.1-.5s0-.4.1-.6v-1.2c0-.1-.1-.3-.2-.6a.76.76 0 0 0-.2-.4h-.1c.2.5.4 1 .4 1.5l-.1 1.2c0 .1-.1.2-.1.3-.5.2-.9 0-1.1-.3 0-.2 0-.5.1-.7h-.1v-.1c0-.1 0-.1-.1-.1-.1-.3-.2-.6-.2-.7s0-.1-.1-.2h-.1s-.1 0-.2.1c0 0-.1.1-.3.2-.1.1-.2.1-.2.2v.1h.2v.2l-.1.2c-.5-.1-.9-.2-1.2-.4-.1-.3-.1-.7 0-1.1.6-1.1 1.6-1.5 2.9-1.1.9-.4 1.5-.3 1.8.3 0-.1.2-.1.2-.1.2-.1.4-.1.7-.1.1 0 .1.1.2.1.5-.3.9-.2 1.2.1v.4h.1c.2.6.2 1.4 0 2.1a.9.9 0 0 0 .5.1h.8c.2.5.2 1.1 0 1.8-.1.2-.4.5-.6.7-.2.1-.4.3-.7.5-.2.1-.4.2-.9.4-.3.1-.4.2-.4.4s.2.7.5 1.3c.2.4.5.7.6.9l.6 1.5c.7 1.4 1.3 2.6 2 3.4.5.6 1 1.2 1.3 1.8l.7-.4c0 .1 0 .1.1.1.1.3.2.6.2 1 .1.6.3 1.2.5 2 0 .5.1 1.3.2 3.1zm6.3.2l-2.4 1h-.2s-.1 0-.1.1h-.3c-.1 0-.3-.1-.6-.2-.2-.1-.3-.2-.3-.2h-.1c-.1-.2-.2-.3-.3-.4 0 0-.1-.1-.1-.2-.1-.2-.2-.3-.3-.4-.1-.2-.1-.4-.3-.8-.2-.3-.3-.6-.4-.8-.2-.3-.3-.6-.4-.8-.1-.5-.3-1-.6-1.6-.1-.3-.2-.6-.2-.8a.76.76 0 0 0-.2-.4c0-.2 0-.3-.1-.4v-.2l-.2-.4c-.1-.3-.2-.5-.3-.8-.3-1.2 0-2 .9-2.3l2.4-1c.6-.2 1.2-.1 1.6.3l.1.1c.1 0 .1.1.1.2s.1.2.3.5c.1.2.2.4.3.7l1.9 4.9.3.9c.2.4.3.8.3 1.1.4.9 0 1.6-.8 1.9m4.1-11.7c-.3.5-.5 1-.7 1.6-.5 1.4-.9 3-1 4.8 0 .4-.1.7-.1 1.1v1c0 .2 0 .4.1.5l-.1.1c-.1 0-.2 0-.2.1-.2.1-.5.2-.7.3l-.3-.9-2.2-5.8c-.1-.2-.2-.5-.3-.7s-.2-.4-.3-.5c0 0 0-.1-.1-.1h.1l4.1-1.8c.2-.1.5-.1.7-.2.6-.2 1.1-.3 1.6-.4-.2.2-.4.5-.6.9m9.5 55.8c-7.8-6-15.4-14.2-22.8-24.8 4.8-2.4 9.8-5.4 14.9-9.2 1.8-1.3 3.6-2.6 5.3-4.1 2.8 4 5.8 7.9 9.1 11.4-.1 0-.1 0-.2.1-.5.5-1 1.2-1.2 2.2-.1.4-.1.6-.1.8a1.38 1.38 0 0 0 .4.3h.1v.1c0 .1.1.2.1.2l.3.3c.1 0 .1.1.1.1.1 0 .1 0 .1.1h.4c0 .1.1.2.2.3l.2.1c.1.1.2.1.3.1h.8c.4.3.7.4 1.1.2.1-.1.2-.3.2-.5v-.2c.1 0 .1-.1.2-.1h.1c.1 0 .2 0 .3-.1l.9.9a1.38 1.38 0 0 0 .4.3c3.8 3.7 7.9 7.1 12.2 10.2-6.7 5.9-14.6 9.6-23.4 11.3m-9.2-20.9c-1 .5-1.9 1.1-2.9 1.7 4.1 5.6 9.2 10.9 15.2 15.7.2-.1.3-.2.5-.3.8-.4 1.6-.9 2.4-1.4-6-4.8-11.1-10.1-15.2-15.7"/><path d="M153.1 90.4l-2.5 1.8c4.2 5.6 9.2 10.9 15.2 15.8.1-.1.3-.2.4-.3l2.1-1.5c-5.9-4.9-11-10.2-15.2-15.8m19.9-7.2v.1-.1zm0-.2v.1-.1m-11 12.3c.1-.1.1-.1 0 0 .1-.1.1-.1 0 0"/></g><path d="M164.6 81.3h.4c.1-.1.2-.1.2-.1h.1c.1 0 .2 0 .3-.1l.1.2v.1c0 .1.1.1.1.1s0 .1-.1.1v.1c0 .1 0 .1-.1.2-.1 0-.1.1-.1.2-.1.1-.1.2-.2.4-.1.1-.1.2-.1.3 0 0 0 .1-.1.1l-.4 1.4c0 .1 0 .1-.1.3 0 .2-.1.4-.2.5-.1.2-.1.4-.2.7-.1.2-.1.4-.2.6 0-.2 0-.5-.1-.7 0-.2-.1-.5-.1-.7-.1-.3-.1-.5-.1-.8-.1-.4-.1-.9-.2-1.3v-1.7s0-.3-.1-.5c.1.1.3.2.4.3.1 0 .2.1.4.1" fill="#fff"/><defs ><path id="B" d="M100.2 159.2c0-1.8 1.4-3.2 3.3-3.2s3.3 1.4 3.3 3.2-1.4 3.2-3.3 3.2c-2 0-3.3-1.4-3.3-3.2zm5.2 0c0-1.1-.8-2-1.9-2s-1.9.9-1.9 1.9c0 1.1.8 2 1.9 2s1.9-.8 1.9-1.9z"/><path id="C" d="m108.8 156.1h1.3l2.9 3.8v-3.8h1.4v6.2h-1.2l-3-4v4h-1.4v-6.2z"/><path id="D" d="M130.7 159.2c0-1.8 1.3-3.2 3.3-3.2 1.2 0 1.9.4 2.5 1l-.9 1c-.5-.4-1-.7-1.6-.7-1.1 0-1.8.9-1.8 1.9 0 1.1.7 2 1.8 2 .7 0 1.1-.3 1.6-.7l.9.9c-.6.7-1.4 1.1-2.6 1.1-1.9-.1-3.2-1.5-3.2-3.3z"/><path id="E" d="m138.3 156.1h4.7v1.2h-3.3v1.3h2.9v1.2h-2.9v1.3h3.4v1.2h-4.8v-6.2z"/><path id="F" d="M183.6 159.6V156h1.4v3.5c0 1 .5 1.5 1.3 1.5s1.3-.5 1.3-1.5v-3.6h1.4v3.5c0 1.9-1.1 2.8-2.7 2.8-1.7.2-2.7-.7-2.7-2.6z"/><path id="G" d="M310.1 156.1h2.9c.7 0 1.3.2 1.6.6.3.3.4.6.4 1.1 0 .7-.4 1.1-.8 1.3.7.3 1.2.7 1.2 1.5 0 1.1-.9 1.7-2.3 1.7h-3v-6.2zm2.6 2.5c.6 0 1-.2 1-.7 0-.4-.3-.6-.9-.6h-1.4v1.3h1.3zm.4 2.5c.6 0 1-.2 1-.7 0-.4-.3-.7-1-.7h-1.6v1.4h1.6z"/></defs></svg>