<?xml version="1.0" encoding="utf-8"?>
<!-- Generator: Adobe Illustrator 23.0.3, SVG Export Plug-In . SVG Version: 6.00 Build 0)  -->
<svg version="1.1" id="Livello_1" xmlns="http://www.w3.org/2000/svg" xmlns:xlink="http://www.w3.org/1999/xlink" x="0px" y="0px"
	 viewBox="0 0 1079.3 233" style="enable-background:new 0 0 1079.3 233;" xml:space="preserve">
<g>
	<g>
		<g>
			<path d="M0,158h11.7c8.3,0,11.9-2.5,11.9-11.6v-121c0-9.1-3.6-11.6-11.9-11.6H0V3.4h70.3v10.3H58.6c-8.3,0-11.9,2.5-11.9,11.6
				v121c0,9.1,3.6,11.6,11.9,11.6h11.7v10.3H0V158z"/>
			<path d="M77.5,3.4h70.3v10.3h-11.7c-8.3,0-11.9,2.5-11.9,11.6v123.7c0,8,3,8.9,15.7,8.9c39.9,0,50.5-2.1,59.7-50.7h8.5l-4,60.9
				H77.5V158h11.7c8.3,0,11.9-2.5,11.9-11.6v-121c0-9.1-3.6-11.6-11.9-11.6H77.5V3.4z"/>
			<path d="M300.4,25.3c0-9.1-3.6-11.6-11.9-11.6h-11.7V3.4h126.3l3,58.9h-8.5c-7.9-46.6-18.5-48.6-58.4-48.6
				c-12.7,0-15.7,0.9-15.7,8.9v54.6h7.6c18.5,0,27-8.7,28.2-31.3h9.6v74.9h-9.6c0-20.3-7.6-33.3-24.2-33.3h-11.7v60.5
				c0,6.4,2.5,10,15.9,10h10.6v10.3h-73.2V158h11.7c8.3,0,11.9-2.5,11.9-11.6V25.3z"/>
			<path d="M482.1,171.7c-44.2,0-73.2-41.8-73.2-85.8c0-34,23.6-85.8,72.8-85.8c44.2,0,73.2,41.8,73.2,85.8
				C554.9,119.8,531.3,171.7,482.1,171.7z M481.7,10.3c-38.4,0-45.6,42.5-45.6,75.6c0,23.1,2.3,75.6,46.1,75.6
				c38.4,0,45.6-42.5,45.6-75.6C527.7,62.8,525.4,10.3,481.7,10.3z"/>
			<path d="M688.4,1.6h7.4l3.2,64.4h-8.5c-7.2-28.1-20-55.7-51.2-55.7c-31.8,0-45.2,33.3-45.2,76c0,16.7,1.1,34.7,8.1,50
				c7.2,15.8,21.7,25.1,37.8,25.1c25,0,37.4-17.3,37.4-37v-9.1c0-9.1-2.8-12.1-17.6-12.1h-5.9V92.9H722v10.3h-14.4
				c-6.4,0-8.5,3.2-8.5,8.7v59.8h-7.4l-8.7-21.2c-11.3,14.6-28.2,21.2-45.6,21.2c-19.7,0-38.4-9.6-51.6-25.1
				c-12.9-15.3-18.7-36.1-18.7-56.6C567,33.3,604.6,0,640,0c15.1,0,28.9,4.8,39.7,16.2L688.4,1.6z"/>
			<path d="M721.8,3.4H792v10.3h-11.7c-8.3,0-11.9,2.5-11.9,11.6v123.7c0,8,3,8.9,15.7,8.9c39.9,0,50.5-2.1,59.7-50.7h8.5l-4,60.9
				H721.8V158h11.7c8.3,0,11.9-2.5,11.9-11.6v-121c0-9.1-3.6-11.6-11.9-11.6h-11.7V3.4z"/>
			<path d="M858.3,158h11.7c8.3,0,11.9-2.5,11.9-11.6v-121c0-9.1-3.6-11.6-11.9-11.6h-11.7V3.4h70.3v10.3h-11.7
				c-8.3,0-11.9,2.5-11.9,11.6v121c0,9.1,3.6,11.6,11.9,11.6h11.7v10.3h-70.3V158z"/>
			<path d="M1006.4,171.7c-44.2,0-73.2-41.8-73.2-85.8c0-34,23.6-85.8,72.8-85.8c44.2,0,73.2,41.8,73.2,85.8
				C1079.3,119.8,1055.7,171.7,1006.4,171.7z M1006,10.3c-38.4,0-45.6,42.5-45.6,75.6c0,23.1,2.3,75.6,46.1,75.6
				c38.4,0,45.6-42.5,45.6-75.6C1052.1,62.8,1049.8,10.3,1006,10.3z"/>
		</g>
	</g>
</g>
<g>
	<g>
		<g>
			<path d="M453.7,231.3h0.9c1.9,0,2.2-0.3,2.7-2.1l2-7l-0.1-0.1c-1.5,1.6-3.6,2.8-5.8,2.8c-4.1,0-6.5-2.8-6.5-6.7
				c0-6.2,4.8-13.5,11.6-13.5c2.1,0,4.2,1,5.4,3l2.5-3h1.5l-6.7,22.9c-0.3,0.8-0.7,2.1-0.7,2.7c0,0.8,0.7,1,1.9,1h1.4l-0.4,1.7
				h-10.2L453.7,231.3z M458.5,206.2c-4.8,0-7.7,8.2-7.7,12.1c0,2.4,0.7,4.8,3.5,4.8c5.1,0,7.9-8.4,7.9-12.4
				C462.2,208.2,461.2,206.2,458.5,206.2z"/>
			<path d="M471,205.3l7.8-0.6l-4,12.6c-0.3,0.8-0.9,2.2-0.9,3.4c0,1.5,0.8,2.2,2.1,2.2c2.1,0,4.7-3.2,5.8-4.8
				c1.8-2.9,3.3-7.7,4.9-13h3.9l-4.6,13.5c-0.4,1.2-0.7,2.3-0.7,3c0,0.8,0.3,1.3,0.9,1.3c0.8,0,2.4-1.6,3.5-3.1l1.3-1.7l1.2,0.8
				c-1.4,2.3-4.3,6.2-7.3,6.2c-1.8,0-2.9-0.9-2.9-2.7c0-0.9,0.2-1.7,0.3-2.5h-0.1c-1.8,2.4-4.3,5.2-7.7,5.2c-2.5,0-4-1.6-4-3.8
				c0-1.2,0.4-2.7,0.8-3.9l2.5-8.2c0.1-0.4,0.3-0.8,0.3-1.4c0-0.9-0.7-0.9-1.6-0.9h-1.9L471,205.3z"/>
			<path d="M500.6,225c-5,0-7.7-3-7.7-8c0-5.9,4.9-12.3,11.1-12.3c4.7,0,7.8,3.5,7.8,8.1C511.7,218.7,506.8,225,500.6,225z
				 M507.8,211.2c0-2.7-1-5-4-5c-4.9,0-7.1,8.9-7.1,12.6c0,2.8,1,4.7,4,4.7C505.6,223.5,507.8,214.9,507.8,211.2z"/>
			<path d="M517.3,207.2h-3.9l0.5-1.9h4l2.5-7.1h3.4l-2.3,7.1h4.6l-0.5,1.9h-4.8l-3.9,13c-0.2,0.5-0.3,1.1-0.3,1.6
				c0,0.8,0.5,1.1,1.3,1.1c1.6,0,4.3-4,5.1-5.2l1.3,0.8c-1.6,2.6-4.3,6.5-7.7,6.5c-2.2,0-3.3-1.5-3.3-3.6c0-0.8,0.3-1.8,0.5-2.6
				L517.3,207.2z"/>
			<path d="M537.3,218.5c-0.8,1.4-4,6.4-7.8,6.4c-2.5,0-2.9-1.7-2.9-2.9c0-1,0.2-1.8,0.5-3.1l3.1-9.9c0.1-0.4,0.3-0.8,0.3-1.4
				c0-0.9-0.9-0.9-1.9-0.9h-1.6l0.4-1.5l7.8-0.6l-4.8,15.3c-0.2,0.6-0.4,1.3-0.4,1.8c0,0.8,0.4,1.1,1,1.1c1.8,0,4.2-3.8,5.1-5.1
				L537.3,218.5z M534.6,194.2c1.2,0,2.4,1,2.4,2.2c0,1.2-1.1,2.4-2.4,2.4c-1.2,0-2.2-1.1-2.2-2.4
				C532.4,195.2,533.4,194.2,534.6,194.2z"/>
			<path d="M555.5,216.9c-0.7,2.4-1.2,3.6-1.2,4.8c0,0.6,0.5,1.2,1.1,1.2c1.5,0,3-1.8,4-3.5l0.9-1.5l1.3,0.7l-0.6,1.1
				c-1.4,2.4-3.6,5.4-6.7,5.4c-2.4,0-3-1.4-3-3.5h-0.1c-1.3,2.1-3.9,3.5-6.5,3.5c-4.4,0-6.7-2.8-6.7-7.1c0-5.9,5.1-13.1,11.5-13.1
				c2.2,0,4.1,1.1,5,3.4h0.1l2.7-9.4c0.3-1,0.5-1.8,0.5-2.4c0-0.9-0.9-0.9-1.9-0.9h-1.9l0.4-1.5l8.1-0.6L555.5,216.9z M545.7,223.1
				c5.1,0,7.8-9,7.8-12.7c0-2.1-1.5-4-3.8-4c-4.9,0-7.8,8-7.8,12.1C541.9,220.8,543,223.1,545.7,223.1z"/>
			<path d="M573.9,218.5c-0.8,1.4-4,6.4-7.8,6.4c-2.5,0-2.9-1.7-2.9-2.9c0-1,0.2-1.8,0.5-3.1l3.1-9.9c0.1-0.4,0.3-0.8,0.3-1.4
				c0-0.9-0.9-0.9-1.9-0.9h-1.6l0.4-1.5l7.8-0.6L567,220c-0.2,0.6-0.4,1.3-0.4,1.8c0,0.8,0.4,1.1,1,1.1c1.8,0,4.2-3.8,5.1-5.1
				L573.9,218.5z M571.1,194.2c1.2,0,2.4,1,2.4,2.2c0,1.2-1.1,2.4-2.4,2.4c-1.2,0-2.2-1.1-2.2-2.4C569,195.2,570,194.2,571.1,194.2z
				"/>
			<path d="M596.5,218.6l-0.3,0.7c-1.4,2.4-3.4,5.7-6.3,5.7c-2.2,0-2.9-1.2-2.9-3.2h-0.1c-1.5,2.1-3.6,3.2-6.2,3.2
				c-4,0-6.2-3-6.2-6.7c0-5.5,4.1-13.5,10.4-13.5c2.5,0,4.8,1.7,5.1,4.3h0.1l1.3-3.6h3.4c-1.5,4.7-3,9.4-4.3,14.2
				c-0.3,0.9-0.5,1.6-0.5,2.4c0,0.6,0.3,1,0.8,1c1.5,0,3-2.2,3.9-3.9l0.5-1.1L596.5,218.6z M585.8,206.8c-5,0-7.4,8-7.4,11.9
				c0,2.5,1.1,4.3,3.7,4.3h0.1c4.6,0,6.8-8.8,6.8-12.4C589,208.6,588,206.8,585.8,206.8z"/>
			<path d="M620.7,218.8c-1.5,2.4-4.2,6.2-7.4,6.2c-2,0-3.1-1.4-3.1-3.3c0-2.1,3.8-10.7,3.8-13c0-1.1-0.7-1.8-1.8-1.8
				c-2.7,0-5.7,3.8-6.9,6c-1.9,3.6-2.8,7.6-3.8,11.5h-3.9l3.9-12.3c0.6-1.9,1-3.5,1-4.1c0-0.5-0.2-1.2-1.9-1.2h-1.8l0.5-1.5l7.3-0.6
				l-1.2,5.5h0.1c2.1-2.6,4.4-5.5,8.2-5.5c2.6,0,3.7,2,3.7,4c0,2.7-3.8,12-3.8,13.2c0,0.8,0.5,0.9,1.1,0.9c1.1,0,2.9-1.8,4.9-4.8
				L620.7,218.8z"/>
			<path d="M628.9,225c-5,0-7.7-3-7.7-8c0-5.9,4.9-12.3,11.1-12.3c4.7,0,7.8,3.5,7.8,8.1C640.1,218.7,635.2,225,628.9,225z
				 M636.2,211.2c0-2.7-1-5-4-5c-4.9,0-7.1,8.9-7.1,12.6c0,2.8,1,4.7,4,4.7C634,223.5,636.2,214.9,636.2,211.2z"/>
		</g>
	</g>
</g>
</svg>
